<svg xmlns="http://www.w3.org/2000/svg" viewBox="0 0 512 512">
  <defs>
    <linearGradient id="bg" x1="0" y1="0" x2="1" y2="1">
      <stop offset="0" stop-color="#f7a24a"/>
      <stop offset="1" stop-color="#d2662a"/>
    </linearGradient>
  </defs>
  <rect width="512" height="512" rx="112" fill="url(#bg)"/>

  <!-- 귀 -->
  <path d="M132 214 148 112l86 58z" fill="#fff8f0"/>
  <path d="M380 214 364 112l-86 58z" fill="#fff8f0"/>
  <path d="M152 196l10-54 47 32z" fill="#f2a9a0"/>
  <path d="M360 196l-10-54-47 32z" fill="#f2a9a0"/>

  <!-- 얼굴 -->
  <ellipse cx="256" cy="286" rx="146" ry="126" fill="#fff8f0"/>

  <!-- 눈 -->
  <ellipse cx="200" cy="268" rx="17" ry="22" fill="#3b2a1c"/>
  <ellipse cx="312" cy="268" rx="17" ry="22" fill="#3b2a1c"/>
  <circle cx="206" cy="260" r="6" fill="#fff"/>
  <circle cx="318" cy="260" r="6" fill="#fff"/>

  <!-- 코와 입 -->
  <path d="M256 300l-16 12h32z" fill="#f2857d"/>
  <path d="M256 316v12M256 328c-12 0-20-8-20-16M256 328c12 0 20-8 20-16"
        stroke="#3b2a1c" stroke-width="7" stroke-linecap="round" fill="none"/>

  <!-- 수염 -->
  <g stroke="#d9b79a" stroke-width="7" stroke-linecap="round">
    <path d="M150 292h-44M152 316l-42 12M362 292h44M360 316l42 12"/>
  </g>
</svg>
